<?xml version="1.0" encoding="UTF-8"?>
<svg id="Layer_1" data-name="Layer 1" xmlns="http://www.w3.org/2000/svg" viewBox="0 0 720 174.43">
  <g>
    <path d="m300.99,14.58h-38.24v82.54h0v67.41h14.03v-60.53h.28v-36.04h9.9c0,1.65,0,3.03.28,4.68h4.95v4.68h0v87.49h14.03v-88.59h0v-8.25h-4.68v-4.95h-4.68v-4.95c1.65,0,3.03,0,4.68-.28,0-1.65.28-3.03.28-4.68,1.65,0,3.03-.28,4.68-.28V19.26h-4.68c-.55-1.93-.82-3.3-.82-4.68Zm-11.83,36.04h-9.63v-19.53h9.63v19.53Z"/>
    <path d="m184.33,14.58h-38.24v82.54h0v67.41h14.03v-59.43h.28v-37.69h24.21c0-1.65.28-3.3.28-4.68,1.65,0,3.03-.28,4.68-.28V18.98h-4.68c-.27-1.38-.55-3.03-.55-4.4Zm-11.83,36.04h-9.63v-19.53h9.63v19.53Z"/>
    <path d="m101.52,14.58h-14.31v28.89h-4.95v-9.35c-1.65,0-3.03-.28-4.95-.28v-9.63h-4.95v-9.35h-14.03v90.52h0v59.43h14.03v-59.43h.28v-56.68h4.95v9.35c1.65,0,3.03.28,4.95.28v9.63h4.68v37.42h0v59.43h14.03v-67.41h0c.28-23.94.28-64.38.28-82.81Z"/>
    <path d="m38.52,53.1H14.58v-24.21h14.86v9.35h14.03v-18.98h-4.68c0-1.65-.28-3.3-.28-4.68H4.95c0,1.65,0,3.03-.28,4.68H0v43.47h4.68c0,1.65.28,3.03.28,4.68h24.21v29.44h0v53.1h-14.86v-38.52c-1.65,0-3.03-.28-4.68-.28,0-1.65-.28-3.03-.28-4.68H.28v53.1h4.68c0,1.65.28,3.03.28,4.68h33.84v-4.68c1.65,0,3.03-.28,4.68-.28v-54.75h0v-47.05h-4.68c-.55-1.1-.55-2.75-.55-4.4Z"/>
    <path d="m209.09,19.26c-1.65,0-3.03.28-4.68.28v84.46h0v55.85c1.65,0,3.03,0,4.68.28,0,1.65.28,3.03.28,4.68h43.19v-14.31h-33.84v-46.5h.28v-36.32h28.89v-14.31h-28.89v-24.49h33.84v-14.03h-43.47c-.28,1.38-.28,2.75-.28,4.4Z"/>
    <path d="m116.65,105.1q.28,0,0,0v59.43h14.03v-59.43h0V14.58h-14.03v90.52Z"/>
  </g>
  <g>
    <path d="m539.79,14.58h-38.24v82.54h0v67.41h14.03v-57.78h.28v-39.34h24.21v-4.68c1.65,0,3.03-.28,4.68-.28V18.98h-4.95c0-1.65,0-3.03,0-4.4Zm-11.83,36.04h-9.63v-19.26h9.63v19.26Z"/>
    <path d="m647.09,43.47h-5.23v-9.35c-1.65,0-3.03-.28-4.68-.28v-9.35c-1.65,0-3.03-.28-4.95-.28v-9.35h-14.03v82.54h0v67.41h14.03v-57.78h.28v-58.6h5.23v9.35c1.65,0,3.03.28,4.68.28v9.35c1.65,0,3.03.28,4.95.28v39.07h0v57.78h14.03v-57.78h0V14.58h-14.31c0,9.63,0,19.26,0,28.89Z"/>
    <path d="m715.05,57.78v-4.68h4.68V14.58h-14.31v33.57c-1.65,0-3.3.28-4.95.28v4.4h-9.9V14.31h-14.03v82.54h0v67.41h14.03v-57.78h.28v-39.07h9.9c0,1.65.28,3.03.28,4.68h4.68c0,1.65.28,32.74.28,34.39h0v57.78h14.03v-67.41h0v-29.16c-1.65,0-3.03-.28-4.68-.28,0-1.65-.28-3.03-.28-4.68-1.65,0-3.03,0-4.68-.28v-4.95c1.65.28,3.03.28,4.68.28Z"/>
    <path d="m603.07,14.58h-14.03v82.54h-.28v53.1h-14.86v-53.1h0V14.58h-14.03v92.17h0v53.1h4.68v4.68h33.84v-4.68h4.68v-62.45h0c0-24.21,0-64.65,0-82.81Z"/>
  </g>
  <g>
    <path d="m408.28,77.03V0h-4.4v9.35c-1.65,0-3.03.28-4.95.28v14.58h-14.31c0,1.65-.28,3.03-.28,4.68h-9.63c0,1.65-.28,3.03-.28,4.95h-9.63v4.95h-4.95v4.68c-1.65,0-3.03.28-4.68.28v4.68c-1.65,0-3.03.28-4.95.28v9.35c-1.65,0-3.03.28-4.95.28v9.35c-1.65,0-3.03.28-4.68.28v9.08h9.35v-4.95h4.95v-9.63c1.65,0,3.03-.28,4.68-.28v-9.35c1.65,0,3.03-.28,4.68-.28,0-1.65,0-3.03.28-4.68,1.65,0,3.03-.28,4.95-.28v-4.95h9.63c0-1.65.28-3.03.28-4.68h9.63c0-1.65.28-3.03.28-4.68h9.9v43.19c3.03.55,6.05.55,9.08.55Z"/>
    <path d="m481.19,82.26h-14.58v-14.31c-1.65,0-3.03-.28-4.68-.28v-9.63c-1.65,0-3.03-.28-4.95-.28v-9.63h-4.95v-4.95h-4.68c0-1.65-.28-3.03-.28-4.68h-4.68c0-1.65-.28-3.03-.28-4.95h-9.35c0-1.65-.28-3.03-.28-4.95h-9.35c0-1.65-.28-3.03-.28-4.68h-9.08v9.35h4.95v4.95h9.63c0,1.65.28,3.03.28,4.68h9.35c0,1.65.28,3.03.28,4.68,1.65,0,3.03,0,4.68.28,0,1.65.28,3.03.28,4.95h4.95v9.63c1.65,0,3.03.28,4.68.28v9.63c1.65,0,3.03.28,4.68.28v9.9h-43.19v9.35h77.03v-4.4h-9.35c-.83-2.2-.83-3.58-.83-5.23Z"/>
    <path d="m388.75,135.64h-9.63c0-1.65-.28-3.03-.28-4.68h-9.35c0-1.65-.28-3.03-.28-4.68-1.65,0-3.03,0-4.68-.28,0-1.65-.28-3.03-.28-4.95h-4.95v-9.63c-1.65,0-3.03-.28-4.68-.28v-9.63c-1.65,0-3.03-.28-4.68-.28v-9.9h43.19v-9.35h-77.03v4.4h9.35c0,1.65.28,3.03.28,4.95h14.58v14.31c1.65,0,3.03.28,4.68.28v9.63c1.65,0,3.03.28,4.95.28v9.63h4.95v4.95h4.68c0,1.65.28,3.03.28,4.68h4.68c0,1.65.28,3.03.28,4.95h9.35c0,1.65.28,3.03.28,4.95h9.35c0,1.65.28,3.03.28,4.68h9.08v-9.35h-4.95c.55-1.38.55-3.03.55-4.68Z"/>
    <path d="m457.26,101.8c-1.65,0-3.3.28-4.95.28v9.63h-4.95v9.63c-1.65,0-3.03.28-4.68.28,0,1.65,0,3.03-.28,4.68-1.65,0-3.03.28-4.68.28,0,1.65-.28,3.03-.28,4.68h-9.63v4.95h-9.63c0,1.65-.28,3.03-.28,4.68h-9.9v-43.47h-9.35v77.03h4.4v-9.35c1.65,0,3.03-.28,4.95-.28v-14.58h14.58v-4.95h9.63c0-1.65.28-3.03.28-4.68h9.63v-4.68c1.65,0,3.3-.28,4.95-.28v-4.95h4.95v-4.95h4.95v-9.63c1.65,0,3.03-.28,4.68-.28v-9.35c1.65,0,3.03-.28,4.68-.28v-9.08h-9.35c.28,1.65.28,3.03.28,4.68Z"/>
    <path d="m399.21,91.62h9.08v-9.08h-9.08v9.08Z"/>
  </g>
</svg>